<svg width="895" height="330" viewBox="0 0 895 330" fill="none" xmlns="http://www.w3.org/2000/svg">
<path d="M94.9922 224.125C85.1105 226.948 76.1699 232.595 76.1699 242.947V263.181H236.159V330H0.880662V225.536C0.880662 187.892 21.1146 170.481 56.4064 161.54L142.048 138.483C151.93 136.13 160.87 130.013 160.87 119.661V86.2512C160.87 75.899 152.4 67.4289 142.048 67.4289H94.9922C84.6399 67.4289 76.1699 75.899 76.1699 86.2512V108.838H0.880662V68.8406C0.880662 31.196 31.4669 0.609752 69.1115 0.609752H167.929C205.573 0.609752 236.159 31.196 236.159 68.8406V137.071C236.159 174.716 216.867 191.656 181.575 200.597L94.9922 224.125ZM424.199 224.125C414.317 226.948 405.376 232.595 405.376 242.947V263.181H565.366V330H330.087V225.536C330.087 187.892 350.321 170.481 385.613 161.54L471.254 138.483C481.136 136.13 490.077 130.013 490.077 119.661V86.2512C490.077 75.899 481.607 67.4289 471.254 67.4289H424.199C413.846 67.4289 405.376 75.899 405.376 86.2512V108.838H330.087V68.8406C330.087 31.196 360.673 0.609752 398.318 0.609752H497.135C534.78 0.609752 565.366 31.196 565.366 68.8406V137.071C565.366 174.716 546.073 191.656 510.781 200.597L424.199 224.125ZM894.572 108.838H819.283V86.2512C819.283 75.899 810.813 67.4289 800.461 67.4289H753.405C743.053 67.4289 734.583 75.899 734.583 86.2512V131.895H826.341C863.986 131.895 894.572 162.482 894.572 200.126V261.769C894.572 299.414 863.986 330 826.341 330H727.524C689.88 330 659.294 299.414 659.294 261.769V68.8406C659.294 31.196 689.88 0.609752 727.524 0.609752H826.341C863.986 0.609752 894.572 31.196 894.572 68.8406V108.838ZM800.461 198.714H734.583V244.359C734.583 254.711 743.053 263.181 753.405 263.181H800.461C810.813 263.181 819.283 254.711 819.283 244.359V217.537C819.283 207.184 810.813 198.714 800.461 198.714Z" fill="#AB1414"/>
</svg>
